<?xml version="1.0" standalone="no"?>
<!DOCTYPE svg PUBLIC "-//W3C//DTD SVG 20010904//EN"
 "http://www.w3.org/TR/2001/REC-SVG-20010904/DTD/svg10.dtd">
<svg version="1.0" xmlns="http://www.w3.org/2000/svg"
 width="500.000000pt" height="500.000000pt" viewBox="0 0 500.000000 500.000000"
 preserveAspectRatio="xMidYMid meet">

<g transform="translate(0.000000,500.000000) scale(0.100000,-0.100000)"
fill="#000000" stroke="none">
<path d="M0 2500 l0 -2500 2500 0 2500 0 0 2500 0 2500 -2500 0 -2500 0 0
-2500z m2150 1095 l0 -105 -310 0 -310 0 0 -795 0 -795 -115 0 -115 0 0 795 0
795 -310 0 -310 0 0 98 c0 54 3 102 7 105 3 4 334 7 735 7 l728 0 0 -105z
m-1131 -394 l31 -39 -2 -186 -3 -185 -75 96 -75 96 -3 -681 -2 -682 -115 0
-115 0 0 810 0 810 164 0 164 0 31 -39z m1161 -771 l0 -810 -107 0 -108 1 -93
119 -92 119 2 181 3 181 80 -103 80 -102 3 612 2 612 115 0 115 0 0 -810z
m508 340 c35 -21 38 -30 20 -48 -8 -8 -17 -6 -36 8 -47 38 -108 15 -127 -48
-9 -29 12 -90 35 -102 31 -16 78 -12 100 10 28 28 25 40 -10 40 -20 0 -30 5
-30 15 0 11 12 15 45 15 l45 0 0 -65 c0 -49 -3 -65 -14 -65 -8 0 -16 5 -18 11
-3 9 -9 9 -25 0 -34 -18 -88 -13 -117 10 -76 60 -73 171 7 219 41 25 83 25
125 0z m284 -105 c26 -66 48 -124 48 -128 0 -5 -10 -7 -22 -5 -15 2 -25 13
-32 36 -9 31 -11 32 -60 32 -50 0 -52 -1 -65 -35 -8 -24 -19 -35 -32 -35 -10
0 -19 3 -19 8 0 8 86 227 95 243 19 29 42 -2 87 -116z m279 96 c37 -37 39 -82
5 -116 -20 -20 -22 -27 -11 -42 50 -73 50 -73 22 -73 -19 0 -31 11 -51 45 -22
37 -32 45 -56 45 -29 0 -30 -2 -30 -45 0 -38 -3 -45 -20 -45 -19 0 -20 7 -20
130 l0 130 66 0 c59 0 68 -3 95 -29z m196 -46 c21 -41 42 -74 46 -72 5 1 25
34 45 72 27 51 43 71 60 73 22 3 22 3 22 -127 0 -123 -1 -131 -20 -131 -17 0
-19 8 -22 86 l-3 87 -35 -63 c-19 -35 -40 -65 -47 -67 -6 -2 -26 24 -45 59
l-33 62 -3 -82 c-3 -80 -4 -82 -27 -82 l-25 0 0 123 c0 68 3 127 7 130 21 22
43 2 80 -68z m438 55 c0 -12 -15 -16 -67 -18 l-68 -3 0 -34 0 -35 61 0 c52 0
60 -2 57 -17 -2 -14 -15 -19 -61 -21 l-57 -3 0 -34 0 -35 70 0 c63 0 70 -2 70
-20 0 -19 -7 -20 -90 -20 l-90 0 0 130 0 131 88 -3 c69 -2 87 -6 87 -18z m184
-71 l70 -90 3 88 c3 80 5 88 23 88 19 0 20 -8 23 -127 2 -123 2 -128 -18 -128
-14 0 -42 28 -88 86 l-67 86 -3 -86 c-3 -78 -5 -86 -22 -86 -19 0 -20 8 -20
130 0 106 3 130 14 130 8 0 46 -41 85 -91z m401 71 c0 -17 -7 -20 -45 -20
l-45 0 0 -110 c0 -103 -1 -110 -20 -110 -19 0 -20 7 -20 110 l0 110 -39 0
c-40 0 -57 11 -46 30 3 6 52 10 111 10 97 0 104 -1 104 -20z m199 9 c28 -10
39 -27 25 -41 -3 -3 -20 -1 -38 4 -49 15 -88 3 -84 -25 2 -17 15 -26 58 -39
88 -28 113 -76 65 -123 -19 -20 -34 -25 -72 -25 -54 0 -98 18 -98 40 0 16 10
16 65 2 44 -11 80 1 80 26 0 19 -21 31 -80 48 -39 10 -60 34 -60 69 0 60 64
90 139 64z"/>
<path d="M2883 2682 l-22 -52 40 0 c44 0 47 7 21 64 l-18 40 -21 -52z"/>
<path d="M3130 2704 l0 -45 46 3 c56 4 74 23 56 62 -10 22 -18 26 -57 26 l-45
0 0 -46z"/>
</g>
</svg>
